<?xml version="1.0" standalone="no"?>
<!DOCTYPE svg PUBLIC "-//W3C//DTD SVG 20010904//EN"
 "http://www.w3.org/TR/2001/REC-SVG-20010904/DTD/svg10.dtd">
<svg version="1.0" xmlns="http://www.w3.org/2000/svg"
 width="267.000000pt" height="120.000000pt" viewBox="0 0 267.000000 120.000000"
 preserveAspectRatio="xMidYMid meet">
<metadata>
Created by potrace 1.16, written by Peter Selinger 2001-2019
</metadata>
<g transform="translate(0.000000,120.000000) scale(0.100000,-0.100000)"
fill="#000000" stroke="none">
<path d="M394 972 c-32 -22 -82 -63 -109 -93 -52 -55 -105 -122 -105 -131 0
-3 39 -8 88 -11 168 -11 283 -65 492 -232 82 -66 153 -115 165 -115 26 0 65
39 65 66 0 66 -144 286 -274 419 -112 114 -144 135 -212 135 -42 0 -61 -7
-110 -38z"/>
<path d="M2556 693 c-3 -87 -9 -186 -13 -220 l-6 -63 45 0 45 0 7 98 c3 53 9
152 13 220 l6 122 -45 0 -45 0 -7 -157z"/>
<path d="M1748 803 c-25 -4 -28 -8 -28 -44 0 -37 -2 -39 -30 -39 -28 0 -30 -3
-30 -35 0 -31 3 -35 26 -35 l26 0 -7 -82 c-5 -73 -4 -87 14 -115 23 -36 49
-46 107 -41 37 3 39 5 39 38 0 32 -3 35 -35 40 l-35 5 -3 78 -3 77 46 0 c45 0
45 0 45 35 0 34 -1 35 -41 35 l-41 0 4 45 c3 48 5 47 -54 38z"/>
<path d="M1445 718 c-58 -32 -79 -79 -59 -133 9 -22 58 -46 113 -54 48 -7 60
-25 29 -44 -11 -8 -33 -7 -73 3 -63 15 -90 7 -90 -26 0 -25 77 -64 127 -64 84
0 138 44 138 113 0 52 -33 83 -96 92 -66 9 -74 12 -74 29 0 20 46 29 87 15 29
-9 37 -8 54 7 10 9 19 23 19 30 0 35 -127 59 -175 32z"/>
<path d="M2032 714 c-12 -8 -22 -10 -22 -5 0 6 -18 11 -40 11 -48 0 -47 4 -54
-178 l-6 -133 42 3 43 3 6 99 c7 118 16 131 91 122 36 -4 48 -1 52 10 10 27 7
43 -14 64 -24 24 -67 26 -98 4z"/>
<path d="M2265 718 c-64 -35 -98 -91 -98 -164 0 -65 25 -108 78 -134 52 -25
81 -25 128 0 31 17 37 17 37 5 0 -11 11 -15 38 -15 l39 0 6 98 c4 53 7 123 7
155 0 57 0 57 -30 57 -17 0 -33 -6 -36 -14 -5 -12 -11 -11 -37 5 -35 21 -101
25 -132 7z m122 -90 c31 -29 30 -78 -1 -114 -46 -54 -136 -26 -136 43 0 29 25
79 42 86 31 13 73 6 95 -15z"/>
<path d="M1026 683 c-3 -21 -6 -71 -6 -111 0 -115 35 -162 120 -162 26 0 55 7
66 15 25 19 34 19 34 0 0 -10 11 -15 35 -15 40 0 41 2 49 163 5 94 5 99 -19
123 -13 13 -33 24 -44 24 -17 0 -19 -9 -23 -94 -4 -108 -19 -136 -73 -136 -47
0 -55 15 -55 102 0 70 -3 82 -25 103 -34 35 -51 32 -59 -12z"/>
<path d="M164 702 c-29 -20 -144 -222 -144 -253 0 -19 44 -59 65 -59 6 0 38
13 71 30 41 20 91 61 163 134 58 58 103 108 100 110 -19 20 -235 52 -255 38z"/>
<path d="M407 562 c-26 -26 -47 -53 -47 -60 0 -9 38 -12 145 -12 173 0 180 6
78 75 -90 60 -114 60 -176 -3z"/>
</g>
</svg>
